<mxfile host="app.diagrams.net" modified="2023-04-25T20:18:25.283Z" agent="Mozilla/5.0 (Windows NT 10.0; Win64; x64) AppleWebKit/537.36 (KHTML, like Gecko) Chrome/112.0.0.0 Safari/537.36" etag="lGzdzNNdDYo5RQbO3fTu" version="21.2.1" type="device">
  <diagram name="Page-1" id="sGzxX93xdV-w-MH2Fxeq">
    <mxGraphModel dx="1750" dy="858" grid="1" gridSize="10" guides="1" tooltips="1" connect="1" arrows="1" fold="1" page="1" pageScale="1" pageWidth="1169" pageHeight="827" math="0" shadow="0">
      <root>
        <mxCell id="0" />
        <mxCell id="1" parent="0" />
        <mxCell id="5-P8dXUu2r8xgCgaxNXc-20" value="" style="group;strokeColor=none;" parent="1" vertex="1" connectable="0">
          <mxGeometry x="620" y="10" width="120" height="120" as="geometry" />
        </mxCell>
        <mxCell id="5-P8dXUu2r8xgCgaxNXc-19" value="" style="rounded=0;whiteSpace=wrap;html=1;strokeColor=none;" parent="5-P8dXUu2r8xgCgaxNXc-20" vertex="1">
          <mxGeometry width="120" height="120" as="geometry" />
        </mxCell>
        <mxCell id="5-P8dXUu2r8xgCgaxNXc-9" value="Client" style="image;aspect=fixed;perimeter=ellipsePerimeter;html=1;align=center;shadow=0;dashed=0;spacingTop=3;image=img/lib/active_directory/laptop_client.svg;" parent="5-P8dXUu2r8xgCgaxNXc-20" vertex="1">
          <mxGeometry x="28.5" y="20" width="63" height="70" as="geometry" />
        </mxCell>
        <mxCell id="5-P8dXUu2r8xgCgaxNXc-48" style="edgeStyle=orthogonalEdgeStyle;rounded=0;orthogonalLoop=1;jettySize=auto;html=1;endArrow=open;endFill=0;" parent="1" target="5-P8dXUu2r8xgCgaxNXc-19" edge="1">
          <mxGeometry relative="1" as="geometry">
            <Array as="points">
              <mxPoint x="680" y="220" />
              <mxPoint x="680" y="220" />
            </Array>
            <mxPoint x="680.0000000000005" y="230" as="sourcePoint" />
          </mxGeometry>
        </mxCell>
        <mxCell id="5-P8dXUu2r8xgCgaxNXc-52" value="JSON Response" style="edgeLabel;html=1;align=center;verticalAlign=middle;resizable=0;points=[];" parent="5-P8dXUu2r8xgCgaxNXc-48" vertex="1" connectable="0">
          <mxGeometry x="0.2604" y="2" relative="1" as="geometry">
            <mxPoint x="13" y="-11" as="offset" />
          </mxGeometry>
        </mxCell>
        <mxCell id="5-P8dXUu2r8xgCgaxNXc-46" style="edgeStyle=orthogonalEdgeStyle;rounded=0;orthogonalLoop=1;jettySize=auto;html=1;endArrow=open;endFill=0;startArrow=none;startFill=0;entryX=0.198;entryY=-0.009;entryDx=0;entryDy=0;entryPerimeter=0;" parent="1" source="5-P8dXUu2r8xgCgaxNXc-19" edge="1">
          <mxGeometry relative="1" as="geometry">
            <Array as="points">
              <mxPoint x="630" y="150" />
              <mxPoint x="237" y="150" />
            </Array>
            <mxPoint x="237.29800000000023" y="229.3699999999999" as="targetPoint" />
          </mxGeometry>
        </mxCell>
        <mxCell id="5-P8dXUu2r8xgCgaxNXc-49" value="AJAX Request" style="edgeLabel;html=1;align=center;verticalAlign=middle;resizable=0;points=[];" parent="5-P8dXUu2r8xgCgaxNXc-46" vertex="1" connectable="0">
          <mxGeometry x="-0.2271" y="1" relative="1" as="geometry">
            <mxPoint x="10" y="-9" as="offset" />
          </mxGeometry>
        </mxCell>
        <mxCell id="l4sHue1TYqRWIE64qisf-54" value="&lt;span style=&quot;color: rgb(0, 0, 0); font-family: Helvetica; font-size: 11px; font-style: normal; font-variant-ligatures: normal; font-variant-caps: normal; font-weight: 400; letter-spacing: normal; orphans: 2; text-align: center; text-indent: 0px; text-transform: none; widows: 2; word-spacing: 0px; -webkit-text-stroke-width: 0px; background-color: rgb(255, 255, 255); text-decoration-thickness: initial; text-decoration-style: initial; text-decoration-color: initial; float: none; display: inline !important;&quot;&gt;response&lt;/span&gt;" style="text;whiteSpace=wrap;html=1;" vertex="1" parent="1">
          <mxGeometry x="680.0049549549549" y="320" width="111.88288288288287" height="40" as="geometry" />
        </mxCell>
        <mxCell id="l4sHue1TYqRWIE64qisf-55" value="" style="group" vertex="1" connectable="0" parent="1">
          <mxGeometry x="850" y="380" width="130" height="280" as="geometry" />
        </mxCell>
        <mxCell id="l4sHue1TYqRWIE64qisf-56" value="ExternalServices" style="shape=umlFrame;whiteSpace=wrap;html=1;pointerEvents=0;width=100;height=30;dashed=1;" vertex="1" parent="l4sHue1TYqRWIE64qisf-55">
          <mxGeometry width="129.99999999999997" height="280" as="geometry" />
        </mxCell>
        <mxCell id="l4sHue1TYqRWIE64qisf-57" value="PaymentAdapter" style="swimlane;fontStyle=1;align=center;verticalAlign=top;childLayout=stackLayout;horizontal=1;startSize=26;horizontalStack=0;resizeParent=1;resizeParentMax=0;resizeLast=0;collapsible=1;marginBottom=0;" vertex="1" parent="l4sHue1TYqRWIE64qisf-55">
          <mxGeometry x="3.89" y="40" width="122.23" height="82" as="geometry" />
        </mxCell>
        <mxCell id="l4sHue1TYqRWIE64qisf-58" value="DeliveryAdapter" style="swimlane;fontStyle=1;align=center;verticalAlign=top;childLayout=stackLayout;horizontal=1;startSize=26;horizontalStack=0;resizeParent=1;resizeParentMax=0;resizeLast=0;collapsible=1;marginBottom=0;" vertex="1" parent="l4sHue1TYqRWIE64qisf-55">
          <mxGeometry x="3.8899999999999864" y="180" width="122.23" height="82" as="geometry" />
        </mxCell>
        <mxCell id="l4sHue1TYqRWIE64qisf-59" value="" style="group" vertex="1" connectable="0" parent="1">
          <mxGeometry x="49" y="340" width="951" height="330" as="geometry" />
        </mxCell>
        <mxCell id="l4sHue1TYqRWIE64qisf-60" value="Domain" style="shape=umlFrame;whiteSpace=wrap;html=1;pointerEvents=0;width=100;height=30;dashed=1;" vertex="1" parent="l4sHue1TYqRWIE64qisf-59">
          <mxGeometry width="950.9999999999998" height="330" as="geometry" />
        </mxCell>
        <mxCell id="l4sHue1TYqRWIE64qisf-61" value="Market" style="swimlane;fontStyle=1;align=center;verticalAlign=top;childLayout=stackLayout;horizontal=1;startSize=26;horizontalStack=0;resizeParent=1;resizeParentMax=0;resizeLast=0;collapsible=1;marginBottom=0;" vertex="1" parent="l4sHue1TYqRWIE64qisf-59">
          <mxGeometry x="434" y="167.35714285714286" width="189" height="47.142857142857146" as="geometry" />
        </mxCell>
        <mxCell id="l4sHue1TYqRWIE64qisf-62" value="Facade" style="shape=umlFrame;whiteSpace=wrap;html=1;pointerEvents=0;width=100;height=30;dashed=1;" vertex="1" parent="l4sHue1TYqRWIE64qisf-59">
          <mxGeometry x="10" y="40" width="780" height="80" as="geometry" />
        </mxCell>
        <mxCell id="l4sHue1TYqRWIE64qisf-63" value="" style="group" vertex="1" connectable="0" parent="l4sHue1TYqRWIE64qisf-59">
          <mxGeometry x="-30" y="40" width="822" height="260" as="geometry" />
        </mxCell>
        <mxCell id="l4sHue1TYqRWIE64qisf-64" value="MemberController" style="swimlane;fontStyle=1;align=center;verticalAlign=top;childLayout=stackLayout;horizontal=1;startSize=26;horizontalStack=0;resizeParent=1;resizeParentMax=0;resizeLast=0;collapsible=1;marginBottom=0;" vertex="1" parent="l4sHue1TYqRWIE64qisf-63">
          <mxGeometry x="280.40595111583417" y="11.329999999999998" width="165.09883103081827" height="57.33" as="geometry" />
        </mxCell>
        <mxCell id="l4sHue1TYqRWIE64qisf-65" value="PurchaseController" style="swimlane;fontStyle=1;align=center;verticalAlign=top;childLayout=stackLayout;horizontal=1;startSize=26;horizontalStack=0;resizeParent=1;resizeParentMax=0;resizeLast=0;collapsible=1;marginBottom=0;" vertex="1" parent="l4sHue1TYqRWIE64qisf-63">
          <mxGeometry x="463.84909670563223" y="10" width="165.09883103081827" height="57.33" as="geometry" />
        </mxCell>
        <mxCell id="l4sHue1TYqRWIE64qisf-66" value="StoreController" style="swimlane;fontStyle=1;align=center;verticalAlign=top;childLayout=stackLayout;horizontal=1;startSize=26;horizontalStack=0;resizeParent=1;resizeParentMax=0;resizeLast=0;collapsible=1;marginBottom=0;" vertex="1" parent="l4sHue1TYqRWIE64qisf-63">
          <mxGeometry x="638.556854410202" y="9.989999999999995" width="165.09883103081827" height="57.34" as="geometry" />
        </mxCell>
        <mxCell id="l4sHue1TYqRWIE64qisf-67" value="Notification" style="swimlane;fontStyle=1;align=center;verticalAlign=top;childLayout=stackLayout;horizontal=1;startSize=26;horizontalStack=0;resizeParent=1;resizeParentMax=0;resizeLast=0;collapsible=1;marginBottom=0;" vertex="1" parent="l4sHue1TYqRWIE64qisf-63">
          <mxGeometry x="183.4431455897981" y="130" width="148.5015940488842" height="47.14" as="geometry" />
        </mxCell>
        <mxCell id="l4sHue1TYqRWIE64qisf-68" value="Member" style="swimlane;fontStyle=1;align=center;verticalAlign=top;childLayout=stackLayout;horizontal=1;startSize=26;horizontalStack=0;resizeParent=1;resizeParentMax=0;resizeLast=0;collapsible=1;marginBottom=0;" vertex="1" parent="l4sHue1TYqRWIE64qisf-63">
          <mxGeometry x="340.6801275239107" y="200" width="148.5015940488842" height="47.14" as="geometry" />
        </mxCell>
        <mxCell id="l4sHue1TYqRWIE64qisf-69" value="Store" style="swimlane;fontStyle=1;align=center;verticalAlign=top;childLayout=stackLayout;horizontal=1;startSize=26;horizontalStack=0;resizeParent=1;resizeParentMax=0;resizeLast=0;collapsible=1;marginBottom=0;" vertex="1" parent="l4sHue1TYqRWIE64qisf-63">
          <mxGeometry x="638.556854410202" y="200" width="148.5015940488842" height="47.14" as="geometry" />
        </mxCell>
        <mxCell id="l4sHue1TYqRWIE64qisf-70" value="" style="endArrow=classic;html=1;rounded=0;entryX=0.591;entryY=0.004;entryDx=0;entryDy=0;entryPerimeter=0;exitX=0.5;exitY=1;exitDx=0;exitDy=0;" edge="1" parent="l4sHue1TYqRWIE64qisf-63" source="l4sHue1TYqRWIE64qisf-66" target="l4sHue1TYqRWIE64qisf-69">
          <mxGeometry width="50" height="50" relative="1" as="geometry">
            <mxPoint x="711.9341126461211" y="70" as="sourcePoint" />
            <mxPoint x="714.5547290116898" y="210" as="targetPoint" />
          </mxGeometry>
        </mxCell>
        <mxCell id="l4sHue1TYqRWIE64qisf-71" value="" style="endArrow=classic;startArrow=classic;html=1;rounded=0;entryX=0;entryY=0.75;entryDx=0;entryDy=0;exitX=0.75;exitY=0;exitDx=0;exitDy=0;" edge="1" parent="l4sHue1TYqRWIE64qisf-59" source="l4sHue1TYqRWIE64qisf-68" target="l4sHue1TYqRWIE64qisf-61">
          <mxGeometry width="50" height="50" relative="1" as="geometry">
            <mxPoint x="371" y="230" as="sourcePoint" />
            <mxPoint x="391" y="200" as="targetPoint" />
          </mxGeometry>
        </mxCell>
        <mxCell id="l4sHue1TYqRWIE64qisf-72" value="" style="endArrow=classic;startArrow=classic;html=1;rounded=0;exitX=0.5;exitY=0;exitDx=0;exitDy=0;entryX=1;entryY=0.75;entryDx=0;entryDy=0;" edge="1" parent="l4sHue1TYqRWIE64qisf-59" source="l4sHue1TYqRWIE64qisf-69" target="l4sHue1TYqRWIE64qisf-61">
          <mxGeometry width="50" height="50" relative="1" as="geometry">
            <mxPoint x="379" y="250" as="sourcePoint" />
            <mxPoint x="444" y="213" as="targetPoint" />
          </mxGeometry>
        </mxCell>
        <mxCell id="l4sHue1TYqRWIE64qisf-73" value="" style="endArrow=classic;html=1;rounded=0;exitX=1;exitY=0.5;exitDx=0;exitDy=0;entryX=-0.002;entryY=0.538;entryDx=0;entryDy=0;entryPerimeter=0;" edge="1" parent="1" source="l4sHue1TYqRWIE64qisf-61" target="l4sHue1TYqRWIE64qisf-56">
          <mxGeometry width="50" height="50" relative="1" as="geometry">
            <mxPoint x="691" y="422" as="sourcePoint" />
            <mxPoint x="691" y="385" as="targetPoint" />
          </mxGeometry>
        </mxCell>
        <mxCell id="l4sHue1TYqRWIE64qisf-74" value="primitives/model" style="edgeLabel;html=1;align=center;verticalAlign=middle;resizable=0;points=[];" vertex="1" connectable="0" parent="1">
          <mxGeometry x="290.6924671814672" y="330" as="geometry" />
        </mxCell>
        <mxCell id="l4sHue1TYqRWIE64qisf-75" value="" style="group" vertex="1" connectable="0" parent="1">
          <mxGeometry x="49" y="230" width="951" height="70" as="geometry" />
        </mxCell>
        <mxCell id="l4sHue1TYqRWIE64qisf-76" value="Service" style="shape=umlFrame;whiteSpace=wrap;html=1;pointerEvents=0;width=100;height=30;dashed=1;" vertex="1" parent="l4sHue1TYqRWIE64qisf-75">
          <mxGeometry width="950.9999999999998" height="70" as="geometry" />
        </mxCell>
        <mxCell id="l4sHue1TYqRWIE64qisf-77" value="MemberService" style="swimlane;fontStyle=1;align=center;verticalAlign=top;childLayout=stackLayout;horizontal=1;startSize=26;horizontalStack=0;resizeParent=1;resizeParentMax=0;resizeLast=0;collapsible=1;marginBottom=0;" vertex="1" collapsed="1" parent="l4sHue1TYqRWIE64qisf-75">
          <mxGeometry x="171" y="5.83" width="130" height="54.17" as="geometry">
            <mxRectangle x="171" y="5.833333333333334" width="189" height="24.5" as="alternateBounds" />
          </mxGeometry>
        </mxCell>
        <mxCell id="l4sHue1TYqRWIE64qisf-78" value="PurchaseService" style="swimlane;fontStyle=1;align=center;verticalAlign=top;childLayout=stackLayout;horizontal=1;startSize=26;horizontalStack=0;resizeParent=1;resizeParentMax=0;resizeLast=0;collapsible=1;marginBottom=0;" vertex="1" collapsed="1" parent="l4sHue1TYqRWIE64qisf-75">
          <mxGeometry x="381" y="5.83" width="140" height="54.17" as="geometry">
            <mxRectangle x="381" y="5.833333333333334" width="189" height="24.5" as="alternateBounds" />
          </mxGeometry>
        </mxCell>
        <mxCell id="l4sHue1TYqRWIE64qisf-79" value="StoreService" style="swimlane;fontStyle=1;align=center;verticalAlign=top;childLayout=stackLayout;horizontal=1;startSize=26;horizontalStack=0;resizeParent=1;resizeParentMax=0;resizeLast=0;collapsible=1;marginBottom=0;" vertex="1" collapsed="1" parent="l4sHue1TYqRWIE64qisf-75">
          <mxGeometry x="591" y="5.83" width="140" height="54.17" as="geometry">
            <mxRectangle x="591" y="5.833333333333334" width="189" height="23.333333333333336" as="alternateBounds" />
          </mxGeometry>
        </mxCell>
        <mxCell id="l4sHue1TYqRWIE64qisf-80" style="edgeStyle=orthogonalEdgeStyle;rounded=0;orthogonalLoop=1;jettySize=auto;html=1;exitX=0.203;exitY=1.025;exitDx=0;exitDy=0;exitPerimeter=0;" edge="1" parent="1" source="l4sHue1TYqRWIE64qisf-76">
          <mxGeometry relative="1" as="geometry">
            <mxPoint x="242" y="380" as="targetPoint" />
          </mxGeometry>
        </mxCell>
        <mxCell id="l4sHue1TYqRWIE64qisf-81" value="" style="endArrow=classic;html=1;rounded=0;entryX=0.663;entryY=1.014;entryDx=0;entryDy=0;entryPerimeter=0;" edge="1" parent="1" target="l4sHue1TYqRWIE64qisf-76">
          <mxGeometry width="50" height="50" relative="1" as="geometry">
            <mxPoint x="680" y="380" as="sourcePoint" />
            <mxPoint x="681" y="353" as="targetPoint" />
          </mxGeometry>
        </mxCell>
        <mxCell id="l4sHue1TYqRWIE64qisf-82" value="" style="endArrow=classic;html=1;rounded=0;exitX=0.66;exitY=1.013;exitDx=0;exitDy=0;exitPerimeter=0;" edge="1" parent="1" source="l4sHue1TYqRWIE64qisf-62">
          <mxGeometry width="50" height="50" relative="1" as="geometry">
            <mxPoint x="682" y="541" as="sourcePoint" />
            <mxPoint x="574" y="510" as="targetPoint" />
          </mxGeometry>
        </mxCell>
        <mxCell id="l4sHue1TYqRWIE64qisf-83" value="" style="endArrow=classic;html=1;rounded=0;entryX=0.371;entryY=0.021;entryDx=0;entryDy=0;entryPerimeter=0;" edge="1" parent="1" target="l4sHue1TYqRWIE64qisf-68">
          <mxGeometry width="50" height="50" relative="1" as="geometry">
            <mxPoint x="350" y="450" as="sourcePoint" />
            <mxPoint x="584" y="520" as="targetPoint" />
          </mxGeometry>
        </mxCell>
      </root>
    </mxGraphModel>
  </diagram>
</mxfile>
